<svg width="600" height="600" viewBox="0 0 600 600" fill="none" xmlns="http://www.w3.org/2000/svg">
<rect x="600" y="600" width="600" height="600" transform="rotate(180 600 600)" fill="#D9D9D9"/>
<rect x="600" y="600" width="75" height="75" transform="rotate(180 600 600)" fill="#A98558"/>
<rect x="600" y="450" width="75" height="75" transform="rotate(180 600 450)" fill="#A98558"/>
<rect x="600" y="300" width="75" height="75" transform="rotate(180 600 300)" fill="#A98558"/>
<rect x="600" y="150" width="75" height="75" transform="rotate(180 600 150)" fill="#A98558"/>
<rect x="525" y="600" width="75" height="75" transform="rotate(180 525 600)" fill="#E3C990"/>
<rect x="525" y="450" width="75" height="75" transform="rotate(180 525 450)" fill="#E3C990"/>
<rect x="525" y="300" width="75" height="75" transform="rotate(180 525 300)" fill="#E3C990"/>
<rect x="525" y="150" width="75" height="75" transform="rotate(180 525 150)" fill="#E3C990"/>
<rect x="450" y="600" width="75" height="75" transform="rotate(180 450 600)" fill="#A98558"/>
<rect x="450" y="450" width="75" height="75" transform="rotate(180 450 450)" fill="#A98558"/>
<rect x="450" y="300" width="75" height="75" transform="rotate(180 450 300)" fill="#A98558"/>
<rect x="450" y="150" width="75" height="75" transform="rotate(180 450 150)" fill="#A98558"/>
<rect x="375" y="600" width="75" height="75" transform="rotate(180 375 600)" fill="#E3C990"/>
<rect x="375" y="450" width="75" height="75" transform="rotate(180 375 450)" fill="#E3C990"/>
<rect x="375" y="300" width="75" height="75" transform="rotate(180 375 300)" fill="#E3C990"/>
<rect x="375" y="150" width="75" height="75" transform="rotate(180 375 150)" fill="#E3C990"/>
<path d="M300 600L225 600L225 525L300 525L300 600Z" fill="#A98558"/>
<path d="M300 450L225 450L225 375L300 375L300 450Z" fill="#A98558"/>
<path d="M300 300L225 300L225 225L300 225L300 300Z" fill="#A98558"/>
<path d="M300 150L225 150L225 75L300 75L300 150Z" fill="#A98558"/>
<rect x="225" y="600" width="75" height="75" transform="rotate(180 225 600)" fill="#E3C990"/>
<rect x="225" y="450" width="75" height="75" transform="rotate(180 225 450)" fill="#E3C990"/>
<rect x="225" y="300" width="75" height="75" transform="rotate(180 225 300)" fill="#E3C990"/>
<rect x="225" y="150" width="75" height="75" transform="rotate(180 225 150)" fill="#E3C990"/>
<rect x="150" y="600" width="75" height="75" transform="rotate(180 150 600)" fill="#A98558"/>
<rect x="150" y="450" width="75" height="75" transform="rotate(180 150 450)" fill="#A98558"/>
<rect x="150" y="300" width="75" height="75" transform="rotate(180 150 300)" fill="#A98558"/>
<rect x="150" y="150" width="75" height="75" transform="rotate(180 150 150)" fill="#A98558"/>
<rect x="75" y="600" width="75" height="75" transform="rotate(180 75 600)" fill="#E3C990"/>
<rect x="75" y="450" width="75" height="75" transform="rotate(180 75 450)" fill="#E3C990"/>
<rect x="75" y="300" width="75" height="75" transform="rotate(180 75 300)" fill="#E3C990"/>
<rect x="75" y="150" width="75" height="75" transform="rotate(180 75 150)" fill="#E3C990"/>
<rect x="600" y="525" width="75" height="75" transform="rotate(180 600 525)" fill="#E3C990"/>
<rect x="600" y="375" width="75" height="75" transform="rotate(180 600 375)" fill="#E3C990"/>
<rect x="600" y="225" width="75" height="75" transform="rotate(180 600 225)" fill="#E3C990"/>
<rect x="600" y="75" width="75" height="75" transform="rotate(180 600 75)" fill="#E3C990"/>
<rect x="525" y="525" width="75" height="75" transform="rotate(180 525 525)" fill="#A98558"/>
<rect x="525" y="375" width="75" height="75" transform="rotate(180 525 375)" fill="#A98558"/>
<rect x="525" y="225" width="75" height="75" transform="rotate(180 525 225)" fill="#A98558"/>
<rect x="525" y="75" width="75" height="75" transform="rotate(180 525 75)" fill="#A98558"/>
<rect x="450" y="525" width="75" height="75" transform="rotate(180 450 525)" fill="#E3C990"/>
<rect x="450" y="375" width="75" height="75" transform="rotate(180 450 375)" fill="#E3C990"/>
<rect x="450" y="225" width="75" height="75" transform="rotate(180 450 225)" fill="#E3C990"/>
<rect x="450" y="75" width="75" height="75" transform="rotate(180 450 75)" fill="#E3C990"/>
<rect x="375" y="525" width="75" height="75" transform="rotate(180 375 525)" fill="#A98558"/>
<rect x="375" y="375" width="75" height="75" transform="rotate(180 375 375)" fill="#A98558"/>
<rect x="375" y="225" width="75" height="75" transform="rotate(180 375 225)" fill="#A98558"/>
<rect x="375" y="75" width="75" height="75" transform="rotate(180 375 75)" fill="#A98558"/>
<path d="M300 525L225 525L225 450L300 450L300 525Z" fill="#E3C990"/>
<path d="M300 375L225 375L225 300L300 300L300 375Z" fill="#E3C990"/>
<path d="M300 225L225 225L225 150L300 150L300 225Z" fill="#E3C990"/>
<path d="M300 75L225 75L225 6.55671e-06L300 0L300 75Z" fill="#E3C990"/>
<rect x="225" y="525" width="75" height="75" transform="rotate(180 225 525)" fill="#A98558"/>
<rect x="225" y="375" width="75" height="75" transform="rotate(180 225 375)" fill="#A98558"/>
<rect x="225" y="225" width="75" height="75" transform="rotate(180 225 225)" fill="#A98558"/>
<rect x="225" y="75" width="75" height="75" transform="rotate(180 225 75)" fill="#A98558"/>
<rect x="150" y="525" width="75" height="75" transform="rotate(180 150 525)" fill="#E3C990"/>
<rect x="150" y="375" width="75" height="75" transform="rotate(180 150 375)" fill="#E3C990"/>
<rect x="150" y="225" width="75" height="75" transform="rotate(180 150 225)" fill="#E3C990"/>
<rect x="150" y="75" width="75" height="75" transform="rotate(180 150 75)" fill="#E3C990"/>
<rect x="75" y="525" width="75" height="75" transform="rotate(180 75 525)" fill="#A98558"/>
<rect x="75" y="375" width="75" height="75" transform="rotate(180 75 375)" fill="#A98558"/>
<rect x="75" y="225" width="75" height="75" transform="rotate(180 75 225)" fill="#A98558"/>
<rect x="75" y="75" width="75" height="75" transform="rotate(180 75 75)" fill="#A98558"/>
</svg>
